<?xml version="1.0" encoding="UTF-8" standalone="no"?>
<!-- Created with Inkscape (http://www.inkscape.org/) -->

<svg
   xmlns:osb="http://www.openswatchbook.org/uri/2009/osb"
   xmlns:dc="http://purl.org/dc/elements/1.1/"
   xmlns:cc="http://creativecommons.org/ns#"
   xmlns:rdf="http://www.w3.org/1999/02/22-rdf-syntax-ns#"
   xmlns:svg="http://www.w3.org/2000/svg"
   xmlns="http://www.w3.org/2000/svg"
   xmlns:sodipodi="http://sodipodi.sourceforge.net/DTD/sodipodi-0.dtd"
   xmlns:inkscape="http://www.inkscape.org/namespaces/inkscape"
   width="182.03334mm"
   height="182.03334mm"
   viewBox="0 0 182.03334 182.03334"
   version="1.1"
   id="svg12114"
   inkscape:version="0.92.2 (5c3e80d, 2017-08-06)"
   sodipodi:docname="MauBank_Ltd.svg">
  <defs
     id="defs12108">
    <linearGradient
       id="linearGradient13445-8-3-8-3">
      <stop
         id="stop842"
         offset="0"
         style="stop-color:#071428;stop-opacity:1;" />
    </linearGradient>
    <linearGradient
       id="linearGradient13445-8-3-8">
      <stop
         id="stop839"
         offset="0"
         style="stop-color:#071428;stop-opacity:1;" />
    </linearGradient>
    <linearGradient
       id="linearGradient13445-8-3">
      <stop
         id="stop836"
         offset="0"
         style="stop-color:#071428;stop-opacity:1;" />
    </linearGradient>
    <linearGradient
       id="linearGradient13445-8">
      <stop
         id="stop833"
         offset="0"
         style="stop-color:#071428;stop-opacity:1;" />
    </linearGradient>
    <linearGradient
       id="linearGradient13445">
      <stop
         id="stop830"
         offset="0"
         style="stop-color:#071428;stop-opacity:1;" />
    </linearGradient>
    <linearGradient
       id="linearGradient13891"
       osb:paint="solid">
      <stop
         style="stop-color:#8d8d8d;stop-opacity:0.01568628;"
         offset="0"
         id="stop13889" />
    </linearGradient>
    <linearGradient
       id="linearGradient13445-8-3-8-3-3">
      <stop
         style="stop-color:#071428;stop-opacity:1;"
         offset="0"
         id="stop13443" />
    </linearGradient>
  </defs>
  <sodipodi:namedview
     id="base"
     pagecolor="#ffffff"
     bordercolor="#666666"
     borderopacity="1.0"
     inkscape:pageopacity="0.0"
     inkscape:pageshadow="2"
     inkscape:zoom="0.98994949"
     inkscape:cx="599.4739"
     inkscape:cy="301.85764"
     inkscape:document-units="mm"
     inkscape:current-layer="g12699"
     showgrid="false"
     fit-margin-top="0"
     fit-margin-left="0"
     fit-margin-right="0"
     fit-margin-bottom="0"
     inkscape:pagecheckerboard="false"
     inkscape:window-width="1600"
     inkscape:window-height="837"
     inkscape:window-x="-8"
     inkscape:window-y="-8"
     inkscape:window-maximized="1" />
  <metadata
     id="metadata12111">
    <rdf:RDF>
      <cc:Work
         rdf:about="">
        <dc:format>image/svg+xml</dc:format>
        <dc:type
           rdf:resource="http://purl.org/dc/dcmitype/StillImage" />
        <dc:title />
      </cc:Work>
    </rdf:RDF>
  </metadata>
  <g
     inkscape:label="Layer 1"
     inkscape:groupmode="layer"
     id="layer1"
     transform="translate(100.39048,-160.92856)">
    <g
       id="g12699">
      <rect
         style="fill:#051c41;fill-opacity:1;fill-rule:evenodd;stroke:none;stroke-width:2.55;stroke-miterlimit:4;stroke-dasharray:none;stroke-opacity:1;opacity:1"
         id="rect11670"
         width="182.03334"
         height="182.03334"
         x="-100.39048"
         y="160.92856"
         inkscape:export-xdpi="90"
         inkscape:export-ydpi="90" />
      <path
         sodipodi:nodetypes="cccccccccccccccccccccccccccccccccccccccccc"
         inkscape:connector-curvature="0"
         id="path6558"
         d="M -9.4839715,331.66202 H -89.211724 v -79.7278 -79.72777 h 62.794452 62.794457 v 4.9389 4.93885 h -57.855562 -57.855597 v 69.85002 69.85 H -9.4839715 60.366025 v -57.85555 -57.85555 h 4.9389 4.9389 v 62.79445 62.79445 z M 51.43548,194.78402 h -3.769455 v -3.08405 -3.08407 l 3.068205,-3.26595 3.06825,-3.26595 h -3.06825 -3.068205 v -4.93885 -4.9389 h 11.2889 11.2889 v 11.2889 11.28887 h -4.9389 -4.9389 v -2.33535 -2.33535 l -2.580545,2.33535 -2.580545,2.33535 z"
         style="fill:#f2d015;fill-opacity:1;stroke-width:1.41111112" />
      <g
         id="g11985"
         style="fill:#f2d015;fill-opacity:1;stroke:#f2d015;stroke-width:4.4000001;stroke-miterlimit:4;stroke-dasharray:none;stroke-opacity:1"
         transform="matrix(0.5015858,0,0,0.473578,-795.50494,-376.1486)">
        <g
           id="flowRoot11954"
           style="font-style:normal;font-variant:normal;font-weight:normal;font-stretch:normal;font-size:426.66668701px;line-height:1.25;font-family:Corbel;-inkscape-font-specification:Corbel;text-align:center;letter-spacing:10.84088421px;word-spacing:10.12215137px;text-anchor:middle;fill:#f2d015;fill-opacity:1;stroke:#f2d015;stroke-width:16.60064888;stroke-miterlimit:4;stroke-dasharray:none;stroke-opacity:1"
           transform="matrix(0.26551726,0,0,0.26458333,-429.98033,-25.702381)"
           aria-label="MAU">
          <path
             id="path11974"
             style="font-style:normal;font-variant:normal;font-weight:normal;font-stretch:normal;font-size:426.66668701px;line-height:1.25;font-family:Corbel;-inkscape-font-specification:Corbel;text-align:center;letter-spacing:-10.84088421px;word-spacing:10.12215137px;text-anchor:middle;fill:#f2d015;fill-opacity:1;stroke:#f2d015;stroke-width:16.60064888;stroke-miterlimit:4;stroke-dasharray:none;stroke-opacity:1"
             d="m 7261.6156,5256.002 h -15.625 l -70.2083,-166.4584 q -14.5834,-34.375 -29.1667,-74.7916 h -1.6667 q 2.9167,58.125 2.9167,106.4583 v 134.7917 h -33.9583 v -278.75 h 48.9583 l 65.625,157.7083 q 11.25,27.0833 24.7917,65.2083 h 1.0416 q 15,-42.2916 24.7917,-65.2083 l 65.625,-157.7083 h 48.9584 v 278.75 h -33.9584 v -134.7917 q 0,-47.2917 2.9167,-106.4583 h -1.6667 q -15.4167,42.7083 -29.1667,74.7916 z"
             inkscape:connector-curvature="0" />
          <path
             id="path11976"
             style="font-style:normal;font-variant:normal;font-weight:normal;font-stretch:normal;font-size:426.66668701px;line-height:1.25;font-family:Corbel;-inkscape-font-specification:Corbel;text-align:center;letter-spacing:-10.84088421px;word-spacing:10.12215137px;text-anchor:middle;fill:#f2d015;fill-opacity:1;stroke:#f2d015;stroke-width:16.60064888;stroke-miterlimit:4;stroke-dasharray:none;stroke-opacity:1"
             d="m 7425.7747,5256.002 113.5417,-278.75 h 29.375 l 113.5417,278.75 h -36.875 l -33.3334,-83.9584 h -116.4583 l -33.3333,83.9584 z m 127.9167,-235.4167 q -18.5417,52.0833 -35.625,94.5833 l -10.4167,26.25 h 92.2917 l -10.4167,-26.25 q -17.0833,-43.3333 -35,-94.5833 z"
             inkscape:connector-curvature="0" />
          <path
             id="path11978"
             style="font-style:normal;font-variant:normal;font-weight:normal;font-stretch:normal;font-size:426.66668701px;line-height:1.25;font-family:Corbel;-inkscape-font-specification:Corbel;text-align:center;letter-spacing:-10.84088421px;word-spacing:10.12215137px;text-anchor:middle;fill:#f2d015;fill-opacity:1;stroke:#f2d015;stroke-width:16.60064888;stroke-miterlimit:4;stroke-dasharray:none;stroke-opacity:1"
             d="m 7821.6005,5231.002 q 15.2084,0 26.875,-3.5417 11.875,-3.5417 20.625,-10 8.75,-6.4583 14.5834,-15.4167 5.8333,-9.1666 8.9583,-20.2083 2.0833,-6.875 2.9167,-15.2083 0.8333,-8.5417 0.8333,-16.4584 V 4977.252 h 33.9583 v 172.0833 q 0,9.7917 -1.0416,20.4167 -1.0417,10.625 -3.3334,19.7916 -3.9583,15.4167 -11.875,28.5417 -7.9166,13.125 -20.625,22.7083 -12.7083,9.5834 -30.625,15 -17.7083,5.4167 -41.6666,5.4167 -22.9167,0 -40.2084,-5 -17.2916,-5 -29.7916,-13.75 -12.2917,-8.9583 -20.2084,-21.0417 -7.9166,-12.2916 -12.2916,-26.6666 -3.125,-10.4167 -4.5834,-22.2917 -1.25,-11.875 -1.25,-23.125 V 4977.252 h 33.9584 v 172.9166 q 0,9.375 1.25,19.375 1.4583,9.7917 4.375,17.9167 7.2916,20.2083 24.1666,31.875 17.0834,11.6667 45,11.6667 z"
             inkscape:connector-curvature="0" />
        </g>
      </g>
      <g
         id="text11972"
         style="font-style:normal;font-weight:normal;font-size:10.33188725px;line-height:1.25;font-family:sans-serif;letter-spacing:-3.95079446px;word-spacing:0px;fill:#f7f7f7;fill-opacity:1;stroke:#f7f7f7;stroke-width:1.45799994;stroke-miterlimit:4;stroke-dasharray:none;stroke-opacity:1"
         transform="matrix(0.5202665,0,0,0.44305202,-676.96694,-269.03057)"
         aria-label="BANK">
        <path
           inkscape:connector-curvature="0"
           id="path12004"
           style="font-style:normal;font-variant:normal;font-weight:normal;font-stretch:normal;font-size:86.09906769px;font-family:'Yu Gothic';-inkscape-font-specification:'Yu Gothic';letter-spacing:-3.95079446px;fill:#f7f7f7;fill-opacity:1;stroke:#f7f7f7;stroke-width:1.45799994;stroke-miterlimit:4;stroke-dasharray:none;stroke-opacity:1"
           d="m 1176.6898,1236.4239 h 20.0533 q 11.5191,0 16.522,4.4563 4.162,3.7416 4.162,10.8044 0,6.0118 -4.3723,9.8375 -3.6995,3.2792 -9.8374,4.162 v 0.4625 q 8.2399,1.0089 12.486,5.5914 3.6996,3.9938 3.6996,9.9636 0,8.8705 -6.4743,13.495 -5.5914,3.9939 -14.9664,3.9939 h -21.2725 z m 5.5914,4.7506 v 22.4496 h 12.2338 q 8.7864,0 13.2848,-3.5734 3.7836,-3.0269 3.7836,-8.0298 0,-6.0538 -3.8677,-8.5342 -3.6575,-2.3122 -11.7293,-2.3122 z m 0,27.2002 v 26.0652 h 14.8823 q 16.3118,0 16.3118,-12.9065 0,-6.4322 -5.3812,-9.9636 -4.9188,-3.1951 -13.2428,-3.1951 z" />
        <path
           inkscape:connector-curvature="0"
           id="path12006"
           style="font-style:normal;font-variant:normal;font-weight:normal;font-stretch:normal;font-size:86.09906769px;font-family:'Yu Gothic';-inkscape-font-specification:'Yu Gothic';letter-spacing:-3.95079446px;fill:#f7f7f7;fill-opacity:1;stroke:#f7f7f7;stroke-width:1.45799994;stroke-miterlimit:4;stroke-dasharray:none;stroke-opacity:1"
           d="m 1253.1626,1236.4239 20.726,62.7666 h -6.0118 l -6.6425,-20.726 h -23.6688 l -6.8106,20.726 h -5.6754 l 20.768,-62.7666 z m 6.7685,37.4581 -5.213,-16.3537 q -2.8168,-8.5343 -5.0029,-16.6481 h -0.7987 q -2.2702,8.4081 -4.8767,16.564 l -5.171,16.4378 z" />
        <path
           inkscape:connector-curvature="0"
           id="path12008"
           style="font-style:normal;font-variant:normal;font-weight:normal;font-stretch:normal;font-size:86.09906769px;font-family:'Yu Gothic';-inkscape-font-specification:'Yu Gothic';letter-spacing:-3.95079446px;fill:#f7f7f7;fill-opacity:1;stroke:#f7f7f7;stroke-width:1.45799994;stroke-miterlimit:4;stroke-dasharray:none;stroke-opacity:1"
           d="m 1328.0799,1236.4239 v 62.7666 h -7.3151 l -22.6599,-40.6533 q -3.4893,-6.4742 -8.9546,-17.1946 h -0.8408 q 0.1681,13.411 0.1681,18.8342 v 39.0137 h -5.3391 v -62.7666 h 8.7865 l 21.6088,38.7614 q 3.8678,7.1889 8.9547,17.615 h 0.8408 q -0.5886,-11.1408 -0.5886,-19.5489 v -36.8275 z" />
        <path
           inkscape:connector-curvature="0"
           id="path12010"
           style="font-style:normal;font-variant:normal;font-weight:normal;font-stretch:normal;font-size:86.09906769px;font-family:'Yu Gothic';-inkscape-font-specification:'Yu Gothic';letter-spacing:-3.95079446px;fill:#f7f7f7;fill-opacity:1;stroke:#f7f7f7;stroke-width:1.45799994;stroke-miterlimit:4;stroke-dasharray:none;stroke-opacity:1"
           d="m 1385.9698,1236.4239 -23.6688,25.3084 26.2753,37.4582 h -6.8105 l -23.1644,-33.6745 -10.7624,11.1828 v 22.4917 h -5.5914 v -62.7666 h 5.5914 v 33.8426 l 30.9839,-33.8426 z" />
      </g>
    </g>
  </g>
</svg>
